<svg viewBox="0 0 64 64" xmlns="http://www.w3.org/2000/svg">
	<path d="m0 0v64h64v-64zm31.998047 6h.003906l10.125 17.486328h-20.253906zm-3.632813 1.9101562-8.853515 15.2929688-10.3535159-4.316406zm7.269532 0 18.716796 10.6972658-9.884765 4.5625zm20.408203 12.3261718v21.330078l-10.431641-16.517578zm-48.0859378.517578 10.4062498 4.335938-10.4062498 16.476562zm13.8710938 4.917969h20.34375l-10.171875 18.496094zm-1.916016 1.058594 10.19336 18.53125-21.3125002-.927735zm24.175782 0 11.11914 17.603515-21.314453.931641zm-33.101563 19.886719 19.919922.863281v10.519531zm42.025391 0-19.917969 11.382812v-10.515625z" fill="#c0c0c0"/>
</svg>