<svg viewBox="0 0 64 64" xmlns="http://www.w3.org/2000/svg">
	<path d="m0 64h64v-64h-64zm6-15.455078v-33.089844c0-1.30488 1.058834-2.363281 2.3632812-2.363281 1.3048793 0 2.3632808 1.058401 2.3632808 2.363281v33.089844c0 1.304447-1.0584014 2.363281-2.3632808 2.363281-1.3044472 0-2.3632812-1.058834-2.3632812-2.363281zm11.818359 7.091797v-47.273438c0-1.304879 1.058402-2.363281 2.363282-2.363281 1.304879 0 2.363281 1.058402 2.363281 2.363281v47.273438c0 1.304447-1.058402 2.363281-2.363281 2.363281-1.30488 0-2.363282-1.058834-2.363282-2.363281zm11.81836-7.091797v-33.089844c0-1.30488 1.058401-2.363281 2.363281-2.363281 1.304448 0 2.363281 1.058401 2.363281 2.363281v33.089844c0 1.304447-1.058833 2.363281-2.363281 2.363281-1.30488 0-2.363281-1.058834-2.363281-2.363281zm11.818359 7.091797v-47.273438c0-1.304879 1.058834-2.363281 2.363281-2.363281 1.304879 0 2.363282 1.058402 2.363282 2.363281v47.273438c0 1.304447-1.058403 2.363281-2.363282 2.363281-1.304447 0-2.363281-1.058834-2.363281-2.363281zm11.81836-7.091797v-33.089844c0-1.30488 1.058401-2.363281 2.363281-2.363281 1.304879 0 2.363281 1.058401 2.363281 2.363281v33.089844c0 1.304447-1.058402 2.363281-2.363281 2.363281-1.30488 0-2.363281-1.058834-2.363281-2.363281z" fill="#c0c0c0"/>
</svg>