<svg viewBox="0 0 64 64" xmlns="http://www.w3.org/2000/svg">
	<path d="m63.890551.89891057c-.224868-.54395492-.755467-.89877334-1.344023-.89890971-56.4373372 0-62.54652862 23.39497014-62.54652862 33.45452314 0 13.050145 9.93766352 21.818197 24.72763462 21.818197 18.679534 0 22.592417-17.774603 24.692724-27.32511 2.041806-9.721643 6.975251-18.5987855 14.153006-25.4661993.415506-.4150912.54069-1.0393644.317187-1.58250113z" fill="#4caf50"/>
	<path d="m1.4546142 64c-.80333137 0-1.45461482-.651274-1.45461482-1.454592 0-8.648733 14.99656462-36.398616 38.63913562-47.854533.723012-.350182 1.593026-.04814 1.94335.674864.350188.723.04814 1.593001-.674874 1.943319-23.875348 11.569508-36.9985183 38.437936-36.9985183 45.236486 0 .803319-.6511471 1.454456-1.4544785 1.454456z" fill="#388e3c"/>
</svg>