<svg viewBox="0 0 64 64" xmlns="http://www.w3.org/2000/svg">
	<path d="m0 0v64h64v-64zm16.833984 6h30.332032c2.389969 0 4.333984 1.9440158 4.333984 4.333984v7.63086c0 .217953-.065648.430446-.189453.611328-2.710398 3.968352-4.144531 8.610172-4.144531 13.423828s1.434031 9.455476 4.144531 13.423828c.123804.180882.189453.393375.189453.611328v7.63086c0 2.389969-1.944116 4.333984-4.333984 4.333984h-30.332032c-2.389969 0-4.333984-1.944015-4.333984-4.333984v-7.63086c0-.217953.065648-.430446.189453-.611328 2.710399-3.968352 4.144531-8.610172 4.144531-13.423828s-1.434031-9.455476-4.144531-13.423828c-.123804-.180882-.189453-.393375-.189453-.611328v-7.63086c0-2.3899682 1.944015-4.333984 4.333984-4.333984zm5.416016 2.1660156c-.598813 0-1.083984.4851719-1.083984 1.0839844v35.75c0 4.549187 2.902164 8.637695 7.220703 10.173828 1.248406.44332 2.430484.660156 3.613281.660156 5.973195 0 10.833984-4.860789 10.833984-10.833984v-35.75c0-.5988125-.485172-1.0839844-1.083984-1.0839844zm8.666016 2.1679684h8.667968c.598813 0 1.081931.483321 1.082032 1.082032v33.583984c0 4.778719-3.887298 8.666016-8.666016 8.666016-.413665 0-.833227-.033559-1.261719-.105469-.522641-.086735-.904297-.538306-.904297-1.068359v-41.076172c0-.598812.48322-1.082032 1.082032-1.082032zm4.333984 15.166016c-1.792172 0-3.25 1.457828-3.25 3.25s1.457828 3.25 3.25 3.25 3.25-1.457828 3.25-3.25-1.457828-3.25-3.25-3.25z" fill="#c0c0c0"/>
</svg>