<svg viewBox="0 0 64 64" xmlns="http://www.w3.org/2000/svg">
	<path d="m0 0v64h64v-64zm23.068359 8.3320312h17.863282c2.898085 0 5.597297 1.5605957 7.042968 4.0722658l8.945313 15.541015c1.43972 2.500561 1.43972 5.608806 0 8.109376l-4.289063 7.451171c-.55978.97238-1.80106 1.306264-2.773437.746094-.972376-.55979-1.307828-1.800667-.748047-2.773437l4.289063-7.451172c.719661-1.25009.719661-2.804208 0-4.054688l-8.945313-15.541015c-.722834-1.25603-2.072244-2.035157-3.521484-2.035157h-17.863282c-1.449241 0-2.798648.779127-3.521484 2.035157l-8.945313 15.541015c-.7196607 1.25008-.7196607 2.804208 0 4.054688l8.945313 15.541015c.722836 1.25604 2.072243 2.035157 3.521484 2.035157h17.863282c1.44924 0 2.79865-.779117 3.521484-2.035157.559781-.97237 1.800666-1.307836 2.773437-.748047.972376.559781 1.307828 1.803021.748047 2.775391-1.446067 2.51168-4.144883 4.072266-7.042968 4.072266h-17.863282c-2.898086 0-5.596901-1.560586-7.042968-4.072266l-8.9453129-15.541015c-1.4393228-2.500571-1.4393228-5.608815 0-8.109376l8.9472659-15.541015c1.445671-2.5116701 4.142929-4.0722657 7.041015-4.0722658zm8.931641 11.4785158c6.721337 0 12.189453 5.468513 12.189453 12.189453s-5.468116 12.189453-12.189453 12.189453c-6.720939 0-12.189453-5.468513-12.189453-12.189453s5.468514-12.189453 12.189453-12.189453zm0 4.0625c-4.480626 0-8.126953 3.646333-8.126953 8.126953 0 4.48063 3.646327 8.126953 8.126953 8.126953 4.480627 0 8.126953-3.646323 8.126953-8.126953 0-4.48062-3.646326-8.126953-8.126953-8.126953z" fill="#c0c0c0"/>
</svg>