<svg viewBox="0 0 64 64" xmlns="http://www.w3.org/2000/svg">
	<path fill="silver" d="m0 0v64h64v-64zm19.646484 6.0097656c.10916-.0117552.223024-.0124922.337891 0 .77807.0846015 1.351563.7700938 1.351563 1.5527344v4.734375h1.523437c.841344 0 1.523437.682094 1.523437 1.523437v3.041016c.005993.781117.267821 7.623047 7.617188 7.623047 7.530857 0 7.617188-7.306203 7.617188-7.617187v-3.046876c0-.841343.682093-1.523437 1.523437-1.523437h1.523437v-4.7734375c.000001-.8985234.776375-1.6136099 1.695313-1.5136719.77807.0846015 1.351563.7700938 1.351563 1.5527344v4.734375h1.523437c.841344 0 1.523437.682094 1.523437 1.523437v3.041016c.005892.780711.36904 7.615847 7.707032 7.623047.844187.000812 1.535156.67925 1.535156 1.523437v15.28125c0 .969516-.305079 1.578126-1.462891 1.578126h-7.779297v5.943359c-.326116.15538-.579367.077066-.884765.072265-.220188-.031282-.312626-.075554-1-.591796-1.016032-.758774-2.552335-1.908235-4.830078-2.257813-1.321633-.264977-2.112257-.145712-2.425781-.132812v-3.033203h-15.234376v3.046874c-.369382-.01919-.409038-.157696-2.162109.044922-2.57532.362984-4.149852 1.539727-5.197265 2.322266-.684329.513297-.767758.553631-1.324219.619141-.204039 0-.329876-.012292-.457031-.050782v-5.982421h-7.6582036c-.8361641 0-1.5750444-.672586-1.5839844-1.509766v-15.333984c0-.840837.6884609-1.523032 1.5292969-1.523438 7.5251711-.003758 7.7128911-7.315664 7.7128911-7.626953v-3.052735c-.000001-.841343.682093-1.523437 1.523437-1.523437h1.523437v-4.7734375c.000001-.786208.593306-1.4313853 1.357422-1.5136719zm-4.404296 18.5332034c-1.390087 1.447164-3.476485 2.513563-6.195313 2.826172v6.255859h6.195313zm9.140624 0v9.082031h6.09375v-6.255859c-2.718828-.312609-4.703663-1.379008-6.09375-2.826172zm15.234376 0c-1.390085 1.447164-3.374922 2.513563-6.09375 2.826172v6.255859h6.09375zm9.140624 0v9.082031h6.195313v-6.255859c-2.718828-.312609-4.805227-1.379008-6.195313-2.826172zm-41.2343745 24.316406c2.5306325 0 3.9819215 1.011922 5.0664065 1.824219.947679.709617 1.631656 1.222656 3.169922 1.222656 1.454171 0 2.213679-.525374 3.15039-1.226562 1.479766-1.105509 2.76082-1.820313 4.955078-1.820313 2.552976 0 3.909094 1.016788 4.998047 1.832031.941789.70525 1.620696 1.214844 3.136719 1.214844s2.19493-.509594 3.136719-1.214844c1.089055-.815243 2.445071-1.832031 4.998047-1.832031 2.25875 0 3.547554.765421 4.974609 1.832031 1.01989.765476 1.693648 1.214844 3.130859 1.214844 1.538367 0 2.222242-.513039 3.169922-1.222656 1.084586-.812297 2.535775-1.824219 5.066406-1.824219.842056 0 1.523438.681382 1.523438 1.523437v6.09375c0 .842055-.681382 1.523438-1.523438 1.523438h-48.9531245c-.8420547 0-1.5234375-.681382-1.5234375-1.523438v-6.09375c0-.842054.6813828-1.523437 1.5234375-1.523437z"/>
</svg>