<svg viewBox="0 0 64 64" xmlns="http://www.w3.org/2000/svg">
	<path fill="silver" d="m0 0v64h64v-64zm25.398438 6h13.203124c1.680048 0 3.046871 1.3668281 3.046876 3.046875v.5078125h-19.296876v-.5078125c.000001-1.6800469 1.366829-3.046875 3.046876-3.046875zm-6.398438 6.601562h26c4.424164 0 8.023438 3.599274 8.023438 8.023438 0 .841344-.682094 1.523438-1.523438 1.523438h-39c-.841344 0-1.523438-.682094-1.523438-1.523438 0-4.424164 3.599274-8.023438 8.023438-8.023438zm-4.365234 12.59375h34.730468l-2.847656 31.417969c-.071094.784875-.729453 1.386719-1.517578 1.386719h-26c-.788125 0-1.446383-.601844-1.517578-1.386719zm17.365234 5.28125c-.841344 0-1.523438.682094-1.523438 1.523438v17.875c0 .841344.682094 1.523438 1.523438 1.523438s1.523438-.682094 1.523438-1.523438v-17.875c0-.841344-.682094-1.523438-1.523438-1.523438zm-8.263672.00586c-.837891.076172-1.455076.81836-1.378906 1.65625l1.625 17.875c.075969.835758.816023 1.455276 1.65625 1.378906.83789-.076172 1.455076-.818359 1.378906-1.65625l-1.625-17.875c-.076172-.837992-.819477-1.455076-1.65625-1.378906zm16.527344 0c-.839008-.076375-1.58008.541015-1.65625 1.378906l-1.625 17.875c-.080844.889078.618468 1.66211 1.519531 1.66211.778984 0 1.443715-.593797 1.515625-1.384766l1.625-17.875c.076171-.837891-.541015-1.57998-1.378906-1.65625z"/>
</svg>