<svg viewBox="0 0 64 64" xmlns="http://www.w3.org/2000/svg">
	<path fill="silver" d="m0 0v64h64v-64zm32 6c1.27712 0 2.3125 1.03538 2.3125 2.3125v6.085938c1.87512.557439 3.552862 1.787954 4.607422 3.615234.49192.85384 13.941406 39.986328 13.941406 39.986328s-27.169149-31.213606-27.662109-32.066406c-2.18712-3.7856-.88937-8.633193 2.90039-10.820313.51272-.2964 1.045011-.513947 1.587891-.685547v-6.115234c0-1.27712 1.03538-2.3125 2.3125-2.3125zm0 12.802734c-2.04048 0-3.695312 1.653793-3.695312 3.695313-.000001 2.04152 1.654832 3.697265 3.695312 3.697265s3.695312-1.653792 3.695312-3.695312-1.654832-3.697266-3.695312-3.697266zm-9.470703 6.28711c.21528.65208.489364 1.290037.839844 1.898437.1976.34008 2.620935 3.213273 7.234375 8.570313-8.15776 9.44944-19.464844 22.441406-19.464844 22.441406s7.361665-21.422316 11.390625-32.910156z"/>
</svg>