<svg viewBox="0 0 64 64" xmlns="http://www.w3.org/2000/svg">
	<path d="m0 0v64h64v-64zm25.804688 6c1.986157 0 3.681163 1.2734922 4.310546 3.046875h1.783204c2.520172 0 4.570312 2.05014 4.570312 4.570313v1.523437h-21.328125v-1.523437c0-2.520173 2.050141-4.570313 4.570313-4.570313h1.783203c.629382-1.7733828 2.32439-3.046875 4.310547-3.046875zm-15.234376 6.09375h1.523438v4.570312c0 .842055.681382 1.523438 1.523438 1.523438h24.375c.842055 0 1.523437-.681383 1.523437-1.523438v-4.570312h1.523437c2.520173 0 4.570313 2.050142 4.570313 4.570312v36.765626c0 2.520172-2.05014 4.570312-4.570313 4.570312h-30.46875c-2.5201719 0-4.570312-2.050141-4.570312-4.570312v-36.765626c0-2.520171 2.0501401-4.570312 4.570312-4.570312zm42.859376 3.216797c.551941 0 1.104398.257195 1.363281.773437l2.724609 5.451172c.315352.630804.482422 1.33782.482422 2.042969v.804687h-9.140625v-.804687c0-.705149.16707-1.412165.482422-2.042969l2.724609-5.451172c.258883-.516242.81134-.773437 1.363282-.773437zm-30.671876 6.025391c-.389796-.000001-.778644.147784-1.076171.445312l-5.017579 5.017578-1.970703-1.970703c-.595055-.595055-1.559243-.595055-2.154297 0-.595055.595055-.595055 1.559243 0 2.154297l3.046876 3.046875c.595155.595157 1.55914.595157 2.154296 0l6.09375-6.09375c.595156-.595054.597008-1.559242.001954-2.154297-.297528-.297528-.688329-.445312-1.078126-.445312zm6.09375 3.046874c-.842054.000001-1.523437.681383-1.523437 1.523438s.681383 1.523438 1.523437 1.523438h9.140626c.842055-.000001 1.523437-.681383 1.523437-1.523438s-.681382-1.523438-1.523437-1.523438zm20.007813 3.046876h9.140625v18.28125h-9.140625zm-26.101563 4.570312c-.389796 0-.778644.147785-1.076171.445312l-5.017579 5.017579-1.970703-1.970703c-.595055-.595056-1.559243-.595056-2.154297 0-.595054.595054-.595055 1.559241 0 2.154296l3.046876 3.046875c.595155.595156 1.55914.595156 2.154296 0l6.09375-6.09375c.595156-.595055.597008-1.559243.001954-2.154297-.297528-.297527-.688329-.445312-1.078126-.445312zm6.09375 3.046875c-.842054 0-1.523437.681384-1.523437 1.523437 0 .842056.681383 1.523438 1.523437 1.523438h9.140626c.842055 0 1.523437-.681382 1.523437-1.523438 0-.842054-.681382-1.523437-1.523437-1.523437zm-6.09375 7.71875c-.389796 0-.778644.147785-1.076171.445313l-5.017579 5.017578-1.970703-1.970704c-.595055-.595055-1.559243-.595055-2.154297 0-.595054.595054-.595055 1.559242 0 2.154297l3.046876 3.046875c.595155.595156 1.55914.595156 2.154296 0l6.09375-6.09375c.595156-.595055.597008-1.559243.001954-2.154296-.297528-.297528-.688329-.445313-1.078126-.445313zm6.09375 3.046875c-.842054 0-1.523437.681384-1.523437 1.523438 0 .842055.681383 1.523437 1.523437 1.523437h9.140626c.842055 0 1.523437-.681382 1.523437-1.523437s-.681382-1.523438-1.523437-1.523438zm20.007813 2.945312h9.140625v1.523438c0 2.520172-2.050141 4.570312-4.570312 4.570312-2.520172 0-4.570313-2.05014-4.570313-4.570312z" fill="#c0c0c0"/>
</svg>