<svg viewBox="0 0 64 64" xmlns="http://www.w3.org/2000/svg">
	<path fill="silver" d="m0 0v64h64v-64zm9.125 8.3808594h45.75c1.722864 0 3.125 1.4020039 3.125 3.1249996v40.988282c0 1.723128-1.401871 3.125-3.125 3.125h-45.75c-1.7229957 0-3.125-1.401872-3.125-3.125v-40.988282c0-1.7231283 1.4020043-3.1249996 3.125-3.1249996zm32.117188 4.0937496c-.637092 0-1.154297.515121-1.154297 1.152344v1.308594c0 .637223.517206 1.154297 1.154297 1.154297h1.152343c.637356 0 1.154297-.517074 1.154297-1.154297v-1.308594c0-.637355-.516941-1.152344-1.154297-1.152344zm5.365234 0c-.637091 0-1.154297.515121-1.154297 1.152344v1.308594c0 .637223.517206 1.154297 1.154297 1.154297h1.154297c.637356 0 1.152343-.517074 1.152343-1.154297v-1.308594c0-.637355-.514854-1.152344-1.152343-1.152344zm5.365234 0c-.637223 0-1.154297.515121-1.154297 1.152344v1.308594c0 .637223.516941 1.154297 1.154297 1.154297h1.154297c.637091 0 1.152344-.517074 1.152344-1.154297v-1.308594c0-.637355-.51512-1.152344-1.152344-1.152344zm-42.222656 7.080079v32.314453h44.5v-32.314453zm5.445312 4.888671h19.291016c1.098369 0 1.988281.889913 1.988281 1.988282 0 1.098368-.889912 1.988281-1.988281 1.988281h-19.291016c-1.098369 0-1.990234-.889913-1.990234-1.988281 0-1.098369.891866-1.988282 1.990234-1.988282zm0 9.28125h10.009766c1.098369 0 1.988281.889914 1.988281 1.988282 0 1.098236-.889912 1.988281-1.988281 1.988281h-10.009766c-1.098369 0-1.990234-.890045-1.990234-1.988281 0-1.098368.891866-1.988282 1.990234-1.988282zm0 9.28125h19.291016c1.098369 0 1.988281.889913 1.988281 1.988282 0 1.098235-.889912 1.988281-1.988281 1.988281h-19.291016c-1.098369 0-1.990234-.890046-1.990234-1.988281 0-1.098369.891866-1.988282 1.990234-1.988282z"/>
</svg>