<svg viewBox="0 0 64 64" xmlns="http://www.w3.org/2000/svg">
	<path d="m0 0v64h64v-64zm18.289062 6h27.421876c3.365476 0 6.09375 2.7282734 6.09375 6.09375 0 3.365477-2.728274 6.09375-6.09375 6.09375h-.761719c-1.260086 0-2.285157-1.02507-2.285157-2.285156s1.025071-2.285156 2.285157-2.285156c.841343-.000001 1.523437-.682094 1.523437-1.523438s-.682094-1.523438-1.523437-1.523438c-2.940133 0-5.332031 2.391899-5.332031 5.332032-.000001.817375.185445 1.592093.515624 2.285156h-16.265624c.33018-.693063.515624-1.467781.515624-2.285156 0-2.940133-2.391898-5.332032-5.332031-5.332032-.841344 0-1.523437.682094-1.523437 1.523438s.682093 1.523438 1.523437 1.523438c1.260086 0 2.285157 1.02507 2.285157 2.285156s-1.025071 2.285156-2.285157 2.285156h-.761719c-3.365475 0-6.09375-2.728273-6.09375-6.09375 0-3.3654766 2.728274-6.09375 6.09375-6.09375zm0 15.234375h27.421876v1.523437c0 1.682791-1.364086 3.046876-3.046876 3.046876h-21.328124c-1.682789 0-3.046876-1.364085-3.046876-3.046876zm3.046876 7.617187h21.328124v23.054688h-21.328124zm6.855468 2.285157c-.841344 0-1.523437.682093-1.523437 1.523437v15.4375c0 .841344.682093 1.523438 1.523437 1.523438s1.523438-.682094 1.523438-1.523438v-15.4375c0-.841344-.682094-1.523437-1.523438-1.523437zm7.617188 0c-.841344 0-1.523438.682093-1.523438 1.523437v15.4375c0 .841344.682094 1.523438 1.523438 1.523438.841343 0 1.523437-.682094 1.523437-1.523438v-15.4375c0-.841344-.682094-1.523437-1.523437-1.523437zm-15.996094 23.816406h24.375c.841344 0 1.523438.682094 1.523438 1.523437 0 .841344-.682094 1.523438-1.523438 1.523438h-24.375c-.841344 0-1.523438-.682094-1.523438-1.523438 0-.841343.682094-1.523437 1.523438-1.523437z" fill="#c0c0c0"/>
</svg>