<svg viewBox="0 0 64 64" xmlns="http://www.w3.org/2000/svg">
	<path d="m0 0v64h64v-64zm27.449219 9.0585938h9.101562c3.391782 0 6.150391 2.7604612 6.150391 6.1523442v3.027343h12.251953v1.523438c0 7.626125-6.950383 14.082711-16.449219 16.144531v-2.767578c0-.841344-.682093-1.523438-1.523437-1.523438h-9.960938c-.841344 0-1.523437.682094-1.523437 1.523438v2.767578c-9.498836-2.06182-16.449219-8.518406-16.449219-16.144531v-1.523438h12.251953v-3.027343c0-3.391883 2.75861-6.1523442 6.150391-6.1523442zm0 3.0468752c-1.711734 0-3.103516 1.393633-3.103516 3.105469h-.001953v3.027343h15.310547v-3.027343c0-1.711836-1.391782-3.105469-3.103516-3.105469zm-21.449219 7.65625c0 5.394695 2.7633283 10.437242 7.779297 14.199219 3.319875 2.489805 7.372343 4.219444 11.783203 5.072265.445453 3.155039 3.161398 5.589844 6.4375 5.589844s5.992047-2.434805 6.4375-5.589844c4.41086-.852821 8.463328-2.58246 11.783203-5.072265 5.015969-3.761977 7.779297-8.804524 7.779297-14.199219v27.675781c0 4.137148-3.366859 7.503906-7.503906 7.503906h-36.992188c-4.1370469 0-7.503906-3.366758-7.503906-7.503906zm22.542969 14.90039h6.914062v3.457032c0 1.906023-1.551109 3.457031-3.457031 3.457031s-3.457031-1.551008-3.457031-3.457031z" fill="#c0c0c0"/>
</svg>