<svg viewBox="0 0 64 64" xmlns="http://www.w3.org/2000/svg">
	<path d="m0 0v64h64v-64zm15.455078 6h33.089844c1.30488 0 2.363281 1.058834 2.363281 2.3632812 0 1.3048793-1.058401 2.3632808-2.363281 2.3632808h-33.089844c-1.304447 0-2.363281-1.0584014-2.363281-2.3632808 0-1.3044472 1.058834-2.3632812 2.363281-2.3632812zm-7.0917968 11.818359h47.2734378c1.304879 0 2.363281 1.058402 2.363281 2.363282 0 1.304879-1.058402 2.363281-2.363281 2.363281h-47.2734378c-1.3044469 0-2.3632812-1.058402-2.3632812-2.363281 0-1.30488 1.0588343-2.363282 2.3632812-2.363282zm7.0917968 11.81836h33.089844c1.30488 0 2.363281 1.058401 2.363281 2.363281 0 1.304448-1.058401 2.363281-2.363281 2.363281h-33.089844c-1.304447 0-2.363281-1.058833-2.363281-2.363281 0-1.30488 1.058834-2.363281 2.363281-2.363281zm-7.0917968 11.818359h47.2734378c1.304879 0 2.363281 1.058834 2.363281 2.363281 0 1.304879-1.058402 2.363282-2.363281 2.363282h-47.2734378c-1.3044469 0-2.3632812-1.058403-2.3632812-2.363282 0-1.304447 1.0588343-2.363281 2.3632812-2.363281zm7.0917968 11.81836h33.089844c1.30488 0 2.363281 1.058401 2.363281 2.363281 0 1.304879-1.058401 2.363281-2.363281 2.363281h-33.089844c-1.304447 0-2.363281-1.058402-2.363281-2.363281 0-1.30488 1.058834-2.363281 2.363281-2.363281z" fill="#c0c0c0"/>
</svg>