<svg viewBox="0 0 64 64" xmlns="http://www.w3.org/2000/svg">
	<path fill="silver" d="m0 0v64h64v-64zm8.7304688 6.8378906c.6993079 0 1.3970122.2671894 1.9296872.8007813l11.03711 11.0390621v-5.96289c0-1.589774 1.228949-2.8750002 2.734375-2.8750002 1.514594-.0000001 2.734375 1.2852262 2.734375 2.8750002v12.230468c0 .05501-.015625.105147-.015625.160157 0 .038509.011925.067205.015625.109375-.003668 1.510927-1.306311 2.734375-2.919922 2.734375h-12.396485c-1.60811 0-2.9218746-1.223448-2.9218746-2.734375 0-1.507259 1.3136456-2.724969 2.9199216-2.730469h5.933594l-10.9863281-10.978516c-1.0580156-1.070851-1.0580156-2.8018369 0-3.8671871.5354255-.5335919 1.2362389-.8007813 1.9355469-.8007813zm46.5390622.0019532c.699308 0 1.399085.2671893 1.933594.8007812 1.063517 1.0653502 1.063517 2.796337 0 3.867187l-10.982422 10.978516h5.931641c1.609944.003667 2.914062 1.221257 2.914062 2.728516 0 1.510927-1.304118 2.734375-2.914062 2.734375h-12.402344c-1.611777 0-2.916169-1.223448-2.917969-2.734375.00183-.042175.013825-.070752.015625-.107422 0-.05501-.013672-.105146-.013672-.160156v-12.232422c0-1.589774 1.221495-2.8750002 2.732422-2.8750002 1.50726-.0000001 2.736328 1.2852262 2.736328 2.8750002v5.964844l11.035157-11.039063c.533592-.5335919 1.232332-.8007812 1.93164-.8007812zm-43.421875 29.2031252h12.398438c1.613611 0 2.916222 1.225401 2.919922 2.736328-.00367.034836-.015779.074412-.017578.107422 0 .049508.015624.105033.015624.158203v12.236328c.000001 1.584272-1.219781 2.871094-2.734374 2.871094-1.505426-.003667-2.734376-1.286822-2.734376-2.871094v-5.962891l-11.037109 11.039063c-1.0653505 1.069017-2.7943832 1.069017-3.8652342 0-1.0580157-1.067184-1.0580157-2.798051 0-3.865234l10.9863282-10.976563h-5.931641c-1.60811-.005501-2.9218748-1.229068-2.9218748-2.736328.0000001-1.510927 1.3137648-2.736328 2.9218748-2.736328zm27.902344 0h12.402344c1.609944 0 2.914062 1.225401 2.914062 2.736328 0 1.50726-1.304118 2.730828-2.914062 2.736328h-5.931641l10.980469 10.978516c1.063516 1.067184 1.063516 2.79805 0 3.865234-1.069018 1.069017-2.798051 1.069017-3.865234 0l-11.035157-11.037109v5.96289c0 1.584273-1.229069 2.867394-2.736328 2.871094-1.510927 0-2.732422-1.286821-2.732422-2.871094v-12.236328c0-.053176.013672-.108693.013672-.158203 0-.036673-.011872-.076488-.013672-.111328.001834-1.510927 1.306192-2.736328 2.917969-2.736328z"/>
</svg>