<svg viewBox="0 0 64 64" xmlns="http://www.w3.org/2000/svg">
	<path d="m0 0v64h64c0-21.333333 0-42.666667 0-64-21.333333 0-42.666667 0-64 0zm32 6c16.860829-.6401969 30.412595 17.780417 24.838749 33.683525-4.374298 16.286185-25.96876 23.817978-39.519453 13.775201-14.2717333-8.992074-15.0810631-31.846134-1.481155-41.825226 4.548952-3.6289052 10.343587-5.6479768 16.161859-5.6335zm-5.587891 6.837891c-8.85913 2.412046-15.193822 11.551312-14.310948 20.697638.537015 9.540315 8.822995 17.826295 18.36331 18.36331 4.651081.369819 9.418862-.950268 13.193732-3.69962 3.371677-5.664212.30776-13.764613-5.954688-15.796598-4.245562-1.37666-9.405785-.802811-12.644356-4.4356-4.2491-4.21781-3.583955-11.731042 1.35295-15.12913zm5.587891 4.839843c-3.407978-.184977-5.326827 4.540226-2.751408 6.782231 2.280773 2.466431 6.880539.521118 6.700627-2.833012.04218-2.125372-1.822528-3.991145-3.949219-3.949219zm0 20.746094c3.407978-.184977 5.326827 4.540226 2.751408 6.782231-2.280773 2.466431-6.880539.521118-6.700627-2.833012-.04218-2.125372 1.822528-3.991145 3.949219-3.949219z" fill="#c0c0c0"/>
</svg>