<svg viewBox="0 0 64 64" xmlns="http://www.w3.org/2000/svg">
	<path d="m0 0v64h64v-64zm32 6c3.4515 0 5.445648 8.050461 6.175781 17.486328-2.34-.116997-4.485781-.152344-6.175781-.152344s-3.835781.035344-6.175781.152344c.730133-9.435766 2.724281-17.486328 6.175781-17.486328zm-4.173828.3652344c-2.639 3.7115006-3.760765 10.8904066-4.207031 17.2539066-6.3635.446367-13.540634 1.568211-17.2500004 4.205078 1.7852656-10.9915 10.4633984-19.6736174 21.4570314-21.4589846zm8.349609.0039062c10.9915 1.7852656 19.673618 10.4655314 21.458985 21.4570314-3.7115-2.639-10.890407-3.760765-17.253907-4.207031-.446367-6.3635-1.568211-13.540634-4.205078-17.2500004zm-4.175781 19.1308594c2.103867 0 4.231679.062687 6.320312.179688.117001 2.088632.179688 4.216445.179688 6.320312s-.062687 4.231679-.179688 6.320312c-2.088633.116998-4.216445.179688-6.320312.179688s-4.23168-.062687-6.320312-.179688c-.116998-2.088633-.179688-4.216445-.179688-6.320312s.062687-4.23168.179688-6.320312c2.088632-.116998 4.216445-.179688 6.320312-.179688zm-8.513672.324219c-.116997 2.34-.152344 4.485781-.152344 6.175781s.035344 3.835781.152344 6.175781c-9.435766-.732367-17.486328-2.726414-17.486328-6.175781s8.050562-5.443414 17.486328-6.175781zm17.027344 0c9.435766.732367 17.486328 2.726414 17.486328 6.175781s-8.050562 5.443414-17.486328 6.175781c.116997-2.34.152344-4.485781.152344-6.175781s-.035344-3.837914-.152344-6.175781zm-34.1484376 10.349609c3.7115006 2.639 10.8905076 3.760765 17.2539066 4.207031.446367 6.3635 1.56821 13.540633 4.205078 17.25-10.9915-1.785266-19.6736174-10.465531-21.4589846-21.457031zm51.2656246.001953c-1.785266 10.9915-10.463398 19.673618-21.457031 21.458985 2.639-3.7115 3.760765-10.890508 4.207031-17.253907 6.3635-.446367 13.540633-1.56821 17.25-4.205078zm-31.80664 4.337891c2.34.116997 4.485781.152344 6.175781.152344s3.835781-.035344 6.175781-.152344c-.730133 9.435766-2.724281 17.486328-6.175781 17.486328s-5.445648-8.050461-6.175781-17.486328z" fill="#c0c0c0"/>
</svg>