<svg viewBox="0 0 64 64" xmlns="http://www.w3.org/2000/svg">
	<path fill="silver" d="m0 0v64h64v-64zm29.689453 7.3945312h13.501953c3.295184 0 5.917969 2.6362828 5.917969 5.9316408v13.501953c0 3.295009-2.622785 6.021484-5.917969 6.021484h8.890625c3.295184 0 5.918143 2.634155 5.917969 5.929688v11.757812c0 3.29501-2.622785 6.021485-5.917969 6.021485h-11.757812c-3.295184 0-6.033203-2.726475-6.033203-6.021485v-6.951171c-.174339 1.104612-.738617 2.156759-1.59375 3.011718l-8.234375 8.261719c-1.125185 1.12501-2.626653 1.746094-4.226563 1.746094-1.599911 0-3.099424-.621084-4.224609-1.746094l-8.2636721-8.261719c-2.3300424-2.330216-2.3300424-6.123082 0-8.453125l8.2597651-8.261719c1.125186-1.12501 2.622573-1.74414 4.222657-1.74414 1.59991 0 3.093565.61913 4.21875 1.74414l.238281.253907c-.633374-.948231-1.03125-2.087035-1.03125-3.310547v-13.5c0-3.295533 2.738019-5.9316408 6.033203-5.9316408zm7.498047 4.9707028c-4.20628 0-7.626779 3.422453-7.626953 7.628907 0 4.206279 3.420673 7.628906 7.626953 7.628906 2.229449 0 4.341073-.970358 5.792969-2.664063.501399-.58456.434343-1.465571-.150391-1.966796-.584559-.501574-1.465397-.434343-1.966797.15039-.921382 1.074627-2.261716 1.691406-3.675781 1.691406-2.66826 0-4.837891-2.171582-4.837891-4.839843 0-2.66826 2.169631-4.837891 4.837891-4.837891 1.279823 0 2.487167.494034 3.398438 1.392578.548296.540796 1.431507.534799 1.972656-.013672.540974-.548646.534624-1.431856-.013672-1.972656-1.436729-1.416854-3.339795-2.197266-5.357422-2.197266zm-10.822266 19.457032 6.332032 6.324218c.855133.855308 1.419411 1.907455 1.59375 3.011719v-2.378906c0-3.295358 2.737845-5.929688 6.033203-5.929688h-10.634766c-1.223512 0-2.375988-.393969-3.324219-1.027343zm-9.798828 5.28125c-.385251-.019965-.769913.119277-1.052734.398437-.37727.37204-.509198.926371-.34375 1.429688l3.771484 11.464843c.193168.586998.738091.958985 1.324219.958985.144353 0 .290846-.02076.435547-.06836.731876-.240762 1.129435-1.030017.888672-1.761718l-.689453-2.09961 4.416015-4.416015 2.056641.708984c.728389.250874 1.522563-.137194 1.773437-.865234.251049-.728215-.136671-1.520436-.865234-1.771485l-11.333984-3.904297c-.125219-.043149-.252443-.067564-.38086-.074218zm25.626953.800781c-.77023 0-1.453125.579379-1.453125 1.349609v10.808594c0 .77023.682895 1.441406 1.453125 1.441406h5.117188c2.268849 0 4.113107-1.894491 4.113281-4.201172 0-1.453291-.730698-2.753725-1.839844-3.503906.256628-.544461.392578-1.129456.392578-1.746094 0-2.299707-1.844257-4.148437-4.113281-4.148437zm1.335938 2.789062h2.332031c.718626 0 1.326172.634026 1.326172 1.382813 0 .497738-.263283.884255-.501953 1.058594h-3.15625zm-24.832031.03711 3.685546 1.269531-2.458984 2.458984zm28.417968 5.191406c.008191 0 .015244.001953.023438.001953h.171875c.71845 0 1.32387.638248 1.324219 1.394531 0 .755935-.605766 1.396485-1.324219 1.396485h-3.78125v-2.791016h3.544922c.01342 0 .027766-.001604.041015-.001953z"/>
</svg>