<svg viewBox="0 0 64 64" xmlns="http://www.w3.org/2000/svg">
	<path d="m0 0v64h64v-64zm46.166016 6.0136719c.476976.021594.951463.0698043 1.423828.1464843.416352.0675886.760947.3622214.890625.7636719.129855.4012731.022814.8404667-.275391 1.1386719l-2.597656 2.599609c-2.116884 2.116707-2.116884 5.54931 0 7.666016 2.116707 2.116707 5.547355 2.116707 7.664062 0l2.59961-2.599609c.298028-.298202.737576-.403116 1.138672-.273438.401095.1295.696081.472497.763672.888672.61344 3.779098-.535288 7.787241-3.449219 10.701172-3.463154 3.462976-8.472641 4.436492-12.804688 2.917969l-1.751953 1.75c-.81319-.808932-1.891655-1.253907-3.039062-1.253907-.692382 0-1.359914.160431-1.958985.466797l-4.521484-4.521484 3.796875-3.796875c-1.616446-4.375509-.670849-9.483448 2.84375-12.998047 2.549534-2.5496896 5.938509-3.746861 9.277344-3.5957031zm-35.628907 3.1582031c.381915-.0288049.775242.0747022 1.103516.3164062l6.832031 5.0312498c.812835.598539.900638 1.783133.1875 2.496094l-.783203.78125 16.746094 16.746094.939453-.941407c.321976-.321975.743987-.482421 1.166016-.482421.422028 0 .844038.160446 1.166015.482421l15.447266 15.447266c2.047522 2.047522 2.047522 5.368495 0 7.416016-2.047522 2.047522-5.366542 2.047522-7.414063 0l-15.447265-15.447266c-.64413-.64413-.64413-1.689854 0-2.333984l1.005859-1.00586-16.74414-16.74414-.783204.783203c-.71367.713847-1.895601.623205-2.49414-.189453l-5.0312502-6.832032c-.4834082-.65637-.4144325-1.567989.1621093-2.144531l2.9003907-2.9003904c.2882707-.2882709.6591012-.4497107 1.0410152-.4785156zm12.810547 24.130859 4.503906 4.503907c-.87652 1.629041-.628919 3.707557.740235 5.083984l-13.576172 13.574219c-2.047521 2.047522-5.3665407 2.047522-7.4140625 0-2.0475217-2.047521-2.0475217-5.368494 0-7.416016z" fill="#c0c0c0"/>
</svg>