<svg viewBox="0 0 64 64" xmlns="http://www.w3.org/2000/svg">
	<path d="m0 0v64h64v-64zm32 6c14.280809 0 26 11.719394 26 26s-11.719395 26-26 26c-14.280606 0-26-11.719394-26-26 0-3.898071.9920855-7.583382 2.5410156-10.902344l4.6738284 4.673828c-.652133 1.961376-1.019532 4.051015-1.019532 6.228516 0 10.920003 8.884684 19.804688 19.804688 19.804688 10.920003 0 19.804688-8.884786 19.804688-19.804688s-8.884786-19.80479-19.804688-19.804688c-2.1775 0-4.26714.367297-6.228516 1.019532l-4.673828-4.6738284c3.318861-1.5491333 7.004272-2.5410156 10.902344-2.5410156zm-18.425781.0078125c.445301-.0421849.896869.1137421 1.222656.4394531l9.140625 9.2402344c.285594.285696.445312.673399.445312 1.078125v5.462891l8.695313 8.693359c.00873.00873.011031.02235.019531.03125.569559.59668.582157 1.538484-.050781 2.142578-.601047.573625-1.500625.56611-2.09375 0-.00894-.00853-.020597-.010831-.029297-.019531l-8.695312-8.69336h-5.462891c-.404625.000001-.790477-.16157-1.076172-.447265l-9.2421874-9.242188c-.4359064-.435906-.5666173-1.09039-.3300781-1.660156.2350157-.569867.7904764-.939555 1.40625-.939453h4.6718745v-4.5703125c0-.6158752.371641-1.1731874.941407-1.4082031.142467-.0591348.289066-.0933603.4375-.1074219zm18.425781 12.2812495c7.560619 0 13.710938 6.150319 13.710938 13.710938s-6.15042 13.710938-13.710938 13.710938c-7.560518-.000001-13.710938-6.150319-13.710938-13.710938 0-1.610274.329617-3.13371.841797-4.570312h1.835938l3.521484 3.521484c-.048341.34582-.105469.689702-.105469 1.048828 0 4.199915 3.417272 7.617188 7.617188 7.617188 4.199915 0 7.617188-3.417273 7.617188-7.617188 0-4.199916-3.417273-7.617188-7.617188-7.617188-.359024.000001-.702906.057129-1.048828.105469l-3.521484-3.521484v-1.835938c1.436602-.51218 2.960038-.841797 4.570312-.841797z" fill="#c0c0c0"/>
</svg>