<svg viewBox="0 0 64 64" xmlns="http://www.w3.org/2000/svg">
	<path fill="silver" d="m0 0v64h64v-64zm31.296875 6c8.994451 0 17.849609 4.142623 17.849609 14.050781 0 9.137062-10.47209 12.651512-12.720703 15.953125-1.688118 2.455897-1.123539 5.90625-5.761719 5.90625-3.021366 0-4.496093-2.458418-4.496093-4.707031 0-8.367625 12.292968-10.260283 12.292969-17.150391 0-3.792461-2.523551-6.041015-6.742188-6.041015-8.994451 0-5.482753 9.271484-12.294922 9.271484-2.459213 0-4.570312-1.474095-4.570312-4.283203-.0017-6.891766 7.86845-13 16.443359-13zm-.351563 40.472656c3.157344 0 5.763672 2.596378 5.763672 5.763672 0 3.167293-2.601353 5.763672-5.763672 5.763672s-5.763671-2.593062-5.763671-5.763672c0-3.165636 2.601352-5.763672 5.763671-5.763672z"/>
</svg>