<svg viewBox="0 0 64 64" xmlns="http://www.w3.org/2000/svg">
	<path fill="silver" d="m0 0v64h64v-64zm32 6c4.7671 0 6.822877 3.2130081 8.636719 6.048828 1.46471 2.28992 2.791458 4.307084 5.416015 5.027344-.376298-2.02708-1.052734-4.576172-1.052734-4.576172s4.85199 1.300781 6.5 1.300781c1.60199 0 6.5-1.300781 6.5-1.300781s-1.300781 4.875-1.300781 6.5 1.300781 6.5 1.300781 6.5-4.943832-1.300781-6.5-1.300781c-1.693835 0-6.5 1.300781-6.5 1.300781s.790772-2.973511 1.136719-5.050781c-4.478468-.77601-6.541472-3.996281-8.238281-6.650391-1.859845-2.90563-3.049927-4.548828-5.898438-4.548828-2.842567 0-4.312883 2.057525-4.732422 6.671875 1.80453.16604 3.598252.503064 5.324219 1.177734.623656.24437 1.033203.843972 1.033203 1.513672v2.011719h-.355469c6.894551 3.00898 11.730469 9.8841 11.730469 17.875 0 10.75292-8.747083 19.5-19.5 19.5-10.752918 0-19.5-8.74708-19.5-19.5 0-7.9909 4.835918-14.86602 11.730469-17.875h-.355469v-2.011719c0-.6697.409544-1.269272 1.033203-1.513672 1.805114-.70561 3.683441-1.051672 5.572266-1.201171.335823-4.13448 1.779596-9.898438 8.019531-9.898438z"/>
</svg>