<svg viewBox="0 0 64 64" xmlns="http://www.w3.org/2000/svg">
	<path fill="silver" d="m0 0v64h64v-64zm7.6601562 8.8945312h21.0175778c.915723 0 1.66211.7442119 1.66211 1.6601568v5.740234c0 .915944-.746387 1.660156-1.66211 1.660156h-21.0175778c-.9157229 0-1.6601562-.744212-1.6601562-1.660156v-5.740234c0-.9159449.7444332-1.6601567 1.6601562-1.6601568zm27.6621098 0h21.017578c.915723.0000001 1.660156.7442119 1.660156 1.6601568v5.740234c0 .915944-.744433 1.660156-1.660156 1.660156h-21.017578c-.915723 0-1.66211-.744212-1.66211-1.660156v-5.740234c0-.9159449.746387-1.6601568 1.66211-1.6601568zm-27.5390629 12.3828128h7.0644529c.915944 0 1.660156.746164 1.660156 1.662109v5.738281c0 .915944-.744212 1.66211-1.660156 1.66211h-7.0644529c-.9159444 0-1.6621093-.746166-1.6621093-1.66211v-5.738281c-.0000001-.915945.7461649-1.662109 1.6621093-1.662109zm13.7089849 0h21.015624c.915723 0 1.66211.746164 1.66211 1.662109v5.738281c0 .915723-.746387 1.66211-1.66211 1.66211h-21.015624c-.915723 0-1.66211-.746387-1.66211-1.66211v-5.738281c0-.915945.746387-1.662109 1.66211-1.662109zm27.660156 0h7.064453c.915945 0 1.662109.746164 1.662109 1.662109v5.738281c0 .915944-.746164 1.66211-1.662109 1.66211h-7.064453c-.915944 0-1.660156-.746166-1.660156-1.66211v-5.738281c-.000001-.915945.744212-1.662109 1.660156-1.662109zm-41.4921878 12.382812h21.0175778c.915723 0 1.66211.746387 1.66211 1.66211v5.738281c0 .915944-.746387 1.662109-1.66211 1.662109h-21.0175778c-.915723 0-1.6601562-.746165-1.6601562-1.662109v-5.738281c0-.915723.7444333-1.66211 1.6601562-1.66211zm27.6621098 0h21.017578c.915723 0 1.660156.746387 1.660156 1.66211v5.738281c0 .915944-.744433 1.662109-1.660156 1.662109h-21.017578c-.915723 0-1.66211-.746165-1.66211-1.662109v-5.738281c0-.915723.746387-1.66211 1.66211-1.66211zm-27.5390629 12.384766h7.0644529c.915944 0 1.660156.744212 1.660156 1.660156v5.740234c0 .915944-.744212 1.660157-1.660156 1.660157h-7.0644529c-.9159444 0-1.6621093-.744212-1.6621093-1.660157v-5.740234c-.0000001-.915944.7461649-1.660156 1.6621093-1.660156zm13.7089849 0h21.015624c.915723 0 1.66211.744212 1.66211 1.660156v5.740234c0 .915944-.746387 1.660157-1.66211 1.660157h-21.015624c-.915723 0-1.66211-.744212-1.66211-1.660157v-5.740234c0-.915944.746387-1.660156 1.66211-1.660156zm27.660156 0h7.064453c.915945 0 1.662109.744212 1.662109 1.660156v5.740234c0 .915944-.746164 1.660157-1.662109 1.660157h-7.064453c-.915944 0-1.660156-.744212-1.660156-1.660157v-5.740234c-.000001-.915944.744212-1.660156 1.660156-1.660156z"/>
</svg>