<svg viewBox="0 0 64 64" xmlns="http://www.w3.org/2000/svg">
	<path d="m0 0v64h64v-64zm32 6c.302756 0 .606097.0747198.880859.2226562l24.142579 12.9999998c.055822.02959.109659.062506.162109.097656.843331.56574 1.067692 1.70756.501953 2.550782l-25.6875 13.599609-25.6875-13.599609c-.035147-.05245-.0680582-.1064-.0976562-.16211-.4760736-.896868-.1351494-2.010254.7617187-2.486328l24.1425785-12.9999998c.274762-.1479364.578104-.2226562.880859-.2226562zm-21.332031 22.378906 20.46289 10.833985c.543649.287929 1.194633.287929 1.738282 0l20.464843-10.833985 3.689454 1.986328c.055822.02959.109659.062507.162109.097657.843331.565738 1.067692 1.70756.501953 2.550781l-25.6875 13.599609-25.6875-13.599609c-.035147-.05245-.0680582-.1064-.0976562-.16211-.4760736-.896868-.1351494-2.010254.7617187-2.486328zm0 11.142578 20.46289 10.833985c.543649.287929 1.194633.287929 1.738282 0l20.464843-10.833985 3.689454 1.986328c.318616.171931.579914.43323.751953.751954.487173.902636.150573 2.030405-.751953 2.517578l-24.142579 13c-.549525.295873-1.212193.295873-1.761718 0l-24.1425785-13c-.3186156-.17193-.5799137-.433228-.7519531-.751953-.4871728-.902635-.1506823-2.030406.7519531-2.517579z" fill="#c0c0c0"/>
</svg>