<svg viewBox="0 0 64 64" xmlns="http://www.w3.org/2000/svg">
	<path fill="silver" d="m0 0v64h64v-64zm24.572266 6c.950569 0 1.89973.3626371 2.625 1.0878906 1.338925 1.338959 1.441529 3.4452474.308593 4.9023434l-.308593.34961-4.800782 4.802734 4.800782 4.802734c1.450503 1.450541 1.450503 3.801414 0 5.251954-1.33896 1.338929-3.445248 1.441524-4.902344.308593l-.34961-.308593-4.802734-4.800782-4.802734 4.800782c-1.45054 1.450503-3.8014135 1.450503-5.2519534 0-1.3389291-1.338959-1.4415337-3.445248-.3085937-4.902344l.3085937-.34961 4.8027344-4.802734-4.8027344-4.802734c-1.4505065-1.45054-1.4505065-3.8014134 0-5.2519534 1.3389598-1.338929 3.4452474-1.4415327 4.9023434-.3085937l.34961.3085937 4.802734 4.8027344 4.802734-4.8027344c.725271-.7252535 1.676384-1.0878906 2.626954-1.0878906zm11.142578 7.427734c10.256629 0 18.570312 8.315564 18.570312 18.572266v12.136719c2.2204 1.2844 3.714844 3.685861 3.714844 6.435547 0 4.1028-3.324934 7.427734-7.427734 7.427734s-7.429688-3.324934-7.429688-7.427734c0-2.749686 1.494445-5.151147 3.714844-6.435547v-12.136719c0-6.154014-4.988378-11.142578-11.142578-11.142578-2.051326 0-3.714844-1.663518-3.714844-3.714844 0-2.051325 1.663518-3.714844 3.714844-3.714844zm-18.572266 18.572266c2.051325 0 3.714844 1.663481 3.714844 3.714844v8.421875c2.2204 1.2844 3.714844 3.685861 3.714844 6.435547 0 4.1028-3.327001 7.427734-7.429688 7.427734-4.102689 0-7.4277342-3.324934-7.4277342-7.427734 0-2.749686 1.4924902-5.151147 3.7128902-6.435547v-8.421875c0-2.051326 1.663518-3.714844 3.714844-3.714844z"/>
</svg>