<svg viewBox="0 0 64 64" xmlns="http://www.w3.org/2000/svg">
	<path d="m0 0v64h64v-64zm27.470703 6c1.791461 0 3.248222 1.4750155 3.248047 3.2890625v18.4199215c0 .336862.27394.613282.611328.613282.337037 0 .611328-.27642.611328-.613282v-6.396484c0-1.813522 1.457111-3.289062 3.248047-3.289062 1.791286 0 3.25 1.47554 3.25 3.289062v8.970703c0 .337213.274116.611328.611328.611328.337037 0 .611328-.27394.611328-.611328v-6.396484c0-1.813697 1.456936-3.289063 3.248047-3.289063 1.791461 0 3.248047 1.475366 3.248047 3.289063v8.972656c0 .337387.273941.611328.611328.611328.337212 0 .613281-.273941.613281-.611328v-5.742187c.000001-1.814223 1.457286-3.291016 3.248047-3.291016 1.791286 0 3.248047 1.476793 3.248047 3.291016v13.464843c0 3.877064-3.052456 14.397767-3.988281 17.417969h-24.783203c-.830249-1.728431-2.33101-4.990024-3.050781-6.232422-1.125967-1.941333-2.637635-4.24447-4.236329-6.68164-2.150384-3.276877-4.576107-6.97465-6.796874-10.875-1.4624783-2.571637-.876315-4.005975-.126954-4.75586.594586-.595987 1.405304-.929293 2.28125-.939453h.021485c.842155.004727 1.642135.325266 2.251953.902344l.089844.091797 7.609375 8.705078c.164054.188562.43834.258162.673828.169922.237589-.089118.396484-.318569.396484-.572266v-28.5234375c0-1.814047 1.458713-3.2890625 3.25-3.2890625z" fill="#c0c0c0"/>
</svg>