<svg viewBox="0 0 64 64" xmlns="http://www.w3.org/2000/svg">
	<path d="m0 .00000191h64v64.00000009h-64zm55.394254 6.44862649-10.368439 10.3684396 4.284627 4.284626c.596099.596099.596099 1.562496 0 2.158595-.595998.595998-1.562496.596099-2.158595 0l-4.284729-4.284728-4.353924 4.353924 4.284627 4.284627c.596099.596099.596099 1.562496 0 2.158595-.595997.595997-1.562496.596099-2.158595 0l-4.284729-4.284729-4.353924 4.353924 4.284627 4.284627c.596099.596099.596099 1.562496 0 2.158595-.595997.595997-1.562496.596099-2.158595 0l-4.284728-4.284729-4.353925 4.353924 4.284627 4.284627c.596099.596099.596099 1.562496 0 2.158595-.595997.595997-1.562496.596099-2.158595 0l-4.284728-4.284729-4.353925 4.353925 4.284627 4.284627c.596099.596099.596099 1.562495 0 2.158594-.595997.595998-1.562495.596099-2.158594 0l-4.284729-4.284728-10.3680322 10.369049c-.9587649.958765-.2786137 2.60572 1.0792466 2.60572h48.9456506c.842964 0 1.526372-.683407 1.526372-1.526371v-48.9456513c.000102-1.3559268-1.645429-2.0394361-2.605618-1.0793483zm-7.264817 40.1544626c0 .842964-.683407 1.526372-1.526372 1.526372h-13.839103c-1.355214 0-2.040046-1.64492-1.079246-2.60572l13.839103-13.839103c.958867-.958867 2.605618-.278512 2.605618 1.079348z" fill="#c0c0c0"/>
</svg>