<svg viewBox="0 0 64 64" xmlns="http://www.w3.org/2000/svg">
	<path d="m0 0v64h64v-64zm25.783203 11.199219h12.433594c2.034783 0 4.014097 1.017238 5.144531 2.71289l2.996094 4.523438h5.425781c3.447826 0 6.216797 2.768971 6.216797 6.216797v21.929687c0 3.447826-2.768971 6.21875-6.216797 6.21875h-39.566406c-3.4478265 0-6.216797-2.770924-6.216797-6.21875v-21.929687c0-3.447826 2.7689705-6.216797 6.216797-6.216797h5.425781l2.996094-4.523438c1.130434-1.695652 3.109748-2.71289 5.144531-2.71289zm6.216797 8.535156c-7.743478 0-14.017578 6.21746-14.017578 13.960937 0 7.743479 6.2741 14.017579 14.017578 14.017579s14.017578-6.273981 14.017578-13.960938c0-7.743478-6.2741-14.017578-14.017578-14.017578zm16.503906 3.787109c-.96087.056522-1.695433.791084-1.751953 1.751954-.056522 1.01739.734561 1.865355 1.751953 1.921874h2.261719.226563c1.017391-.056522 1.751832-.904484 1.695312-1.921874-.056522-1.017393-.904484-1.808474-1.921875-1.751954zm-16.503906 2.431641c4.295652 0 7.800781 3.446535 7.800781 7.742187s-3.505129 7.800782-7.800781 7.800782-7.800781-3.448488-7.800781-7.744141c0-4.295652 3.505129-7.798828 7.800781-7.798828z" fill="#c0c0c0"/>
</svg>