<svg viewBox="0 0 64 64" xmlns="http://www.w3.org/2000/svg">
	<path fill="silver" d="m0 0v64h64v-64zm14.125 6h35.75c4.480125 0 8.125 3.644875 8.125 8.125v25.59375c0 1.121859-.909391 2.03125-2.03125 2.03125s-2.03125-.909391-2.03125-2.03125v-5.585938h-19.90625v19.804688h15.84375c2.240062 0 4.0625-1.822438 4.0625-4.0625 0-1.121859.909391-2.03125 2.03125-2.03125s2.03125.909391 2.03125 2.03125c0 4.480125-3.644875 8.125-8.125 8.125h-35.75c-4.480125 0-8.125-3.644875-8.125-8.125v-35.75c0-4.480125 3.644875-8.125 8.125-8.125zm0 4.0625c-2.240062 0-4.0625 1.822438-4.0625 4.0625v15.945312h19.90625v-20.007812zm19.90625 0v20.007812h19.90625v-15.945312c0-2.240062-1.822438-4.0625-4.0625-4.0625zm-14.015625 4.0625c1.121859 0 2.03125.909391 2.03125 2.03125v1.828125h1.828125c1.121859 0 2.03125.909391 2.03125 2.03125s-.909391 2.03125-2.03125 2.03125h-1.828125v1.828125c0 1.121859-.909391 2.03125-2.03125 2.03125s-2.03125-.909391-2.03125-2.03125v-1.828125h-1.828125c-1.121859 0-2.03125-.909391-2.03125-2.03125s.909391-2.03125 2.03125-2.03125h1.828125v-1.828125c0-1.121859.909391-2.03125 2.03125-2.03125zm20.109375 3.859375h7.71875c1.121859 0 2.03125.909391 2.03125 2.03125s-.909391 2.03125-2.03125 2.03125h-7.71875c-1.121859 0-2.03125-.909391-2.03125-2.03125s.909391-2.03125 2.03125-2.03125zm-30.0625 16.148437v15.742188c0 2.240062 1.822438 4.0625 4.0625 4.0625h15.84375v-19.804688zm9.953125 2.742188a2.03125 2.03125 0 012.03125 2.03125 2.03125 2.03125 0 01-2.03125 2.03125 2.03125 2.03125 0 01-2.03125-2.03125 2.03125 2.03125 0 012.03125-2.03125zm20.96875 2.097656c.519835 0 1.038945.199153 1.435547.595703l1.560547 1.558594 1.560547-1.558594c.793305-.793101 2.07789-.793101 2.871093 0 .793305.793203.793305 2.079742 0 2.873047l-1.558593 1.558594 1.558593 1.560547c.793305.793305.793305 2.079843 0 2.873047-.396601.3965-.915647.59375-1.435547.59375-.519898 0-1.038944-.197251-1.435546-.59375l-1.560547-1.560547-1.560547 1.560547c-.396602.3965-.915649.59375-1.435547.59375-.519899 0-1.038946-.197251-1.435547-.59375-.793305-.793305-.793305-2.079844 0-2.873047l1.558594-1.560547-1.558594-1.558594c-.793305-.793305-.793305-2.079844 0-2.873047.396653-.39655.915712-.595703 1.435547-.595703zm-24.828125 2.980469h7.71875c1.121859 0 2.03125.909391 2.03125 2.03125s-.909391 2.03125-2.03125 2.03125h-7.71875c-1.121859 0-2.03125-.909391-2.03125-2.03125s.909391-2.03125 2.03125-2.03125zm3.859375 5.078125a2.03125 2.03125 0 012.03125 2.03125 2.03125 2.03125 0 01-2.03125 2.03125 2.03125 2.03125 0 01-2.03125-2.03125 2.03125 2.03125 0 012.03125-2.03125z"/>
</svg>