<svg viewBox="0 0 64 64" xmlns="http://www.w3.org/2000/svg">
	<path fill="silver" d="m0 0v64h64v-64zm29.833984 6.0019531c4.643199 0 9.115994 1.6218321 12.753907 4.4472659l3.972656-3.9707034c.463368-.4657482 1.162948-.6070186 1.769531-.3535156.60698.2515206 1.003906.8453836 1.003906 1.5019531v11.9160159c0 .896981-.728018 1.625-1.625 1.625h-11.917968c-.658553 0-1.248481-.397322-1.5-1.003907-.24914-.606978-.114186-1.306163.351562-1.769531l4.861328-4.859375c-2.805596-2.036755-6.179588-3.201172-9.669922-3.201172-5.015717 0-9.724411 2.280371-12.916015 6.253907-.745436.935861-2.107109 1.085766-3.042969.333984-.933876-.749798-1.083783-2.114983-.333984-3.046875 4.016779-5.0046104 9.95578-7.8730469 16.292968-7.8730469zm25.410157 17.3300779c1.460856-.046682 2.755859 1.193116 2.755859 2.710938v29.248047c0 1.492853-1.216131 2.708984-2.708984 2.708984-.762891 0-1.511059-.332107-2.011719-.886719l-14.064453-15.146484c-.470112-.526445-.714844-1.170152-.714844-1.841797 0-.717268.286542-1.394421.806641-1.910156.026183-.026184.202298-.183231.230468-.207032l13.716797-13.720703c.62632-.647271 1.326209-.933859 1.990235-.955078zm-46.5351566.001953c.7129039 0 1.3905156.283064 1.9062496.800782.030548.028167.188664.212037.214844.242187l13.71875 13.710938c.665298.641495.951172 1.319841.951172 2.037109 0 .671645-.245067 1.315716-.693359 1.818359l-14.103516 15.189453c-.48122.535174-1.2316468.867188-1.9941406.867188-1.4928535 0-2.7089844-1.216131-2.7089844-2.708984v-29.248047c0-1.492853 1.2161309-2.708985 2.7089844-2.708985zm23.2910156 2.166016c1.198488 0 2.166016.972258 2.166016 2.167969v25.998047c0 1.196107-.967528 2.167968-2.166016 2.167968-1.198092 0-2.166016-.971861-2.166016-2.167968v-25.998047c0-1.195711.967924-2.167969 2.166016-2.167969z"/>
</svg>