<svg viewBox="0 0 64 64" xmlns="http://www.w3.org/2000/svg">
	<path fill="silver" d="m0 0v64h64v-64zm31.986328 6c1.220546 0 2.21105.9905037 2.210938 2.2109375v5.5546875l3.826172-3.8261719c.863913-.8633515 2.26176-.8633515 3.125 0 .863014.8635759.863014 2.2615359 0 3.1249999l-6.951172 6.951172v4.171875l3.4375 1.986328 3.626953-2.082031 2.533203-9.458985c.316109-1.178451 1.534867-1.869965 2.707031-1.5625 1.180022.315661 1.87816 1.529749 1.5625 2.708985l-1.396484 5.208984 4.810547-2.763672c1.058562-.609206 2.407698-.242155 3.017578.816407.60786 1.058563.241708 2.409831-.816406 3.017578l-4.800782 2.755859 5.207032 1.396485c1.17946.315661 1.878497 1.527458 1.5625 2.707031-.263687.987056-1.155141 1.638672-2.13086 1.638672-.190159 0-.383274-.025212-.574219-.076172l-9.498047-2.544922-3.603515 2.068359v3.947266l3.644531 2.103516 9.457031-2.533204c1.17744-.308925 2.392944.384273 2.707032 1.5625.315998 1.178899-.384994 2.391101-1.564453 2.705078l-5.1875 1.392579 4.787109 2.761718c1.056766.611003 1.417642 1.962765.806641 3.019532-.409507.711246-1.151067 1.103515-1.914063 1.103515-.374706 0-.755078-.093245-1.103516-.296875l-4.8125-2.77539 1.402344 5.228515c.315548 1.181145-.382477 2.389463-1.5625 2.707032-.191394.05175-.384733.076171-.574219.076171-.975269 0-1.866836-.652895-2.130859-1.640625l-2.546875-9.496093-3.619141-2.089844-3.433593 1.982422v4.224609l6.951172 6.951172c.863013.863464.863013 2.261424 0 3.125-.431621.431731-.995951.646484-1.5625.646484-.56655 0-1.13088-.214753-1.5625-.646484l-3.826172-3.826172v5.552734c0 1.222454-.990392 2.210938-2.210938 2.210938-1.220322 0-2.210937-.988259-2.210937-2.210938v-5.52539l-3.798829 3.798828c-.431732.431731-.99797.646484-1.5625.646484-.566436 0-1.130769-.214753-1.5625-.646484-.863351-.863801-.863351-2.261761 0-3.125l6.923829-6.923828v-4.269531l-3.404297-1.964844-3.621094 2.089844-2.544922 9.496093c-.26436.98773-1.157431 1.640625-2.132812 1.640625-.19016 0-.38132-.024422-.572266-.076171-1.179348-.317569-1.88045-1.525888-1.564453-2.707032l1.400391-5.228515-4.810547 2.777343c-.348327.203856-.728922.296875-1.103516.296875-.762996 0-1.5046693-.394221-1.9140625-1.105468-.6111149-1.056766-.2480608-2.4068.8085935-3.017579l4.785156-2.763671-5.1874995-1.392579c-1.1794609-.313977-1.8803381-1.525954-1.5644531-2.705078.3163339-1.178002 1.5358768-1.869854 2.7070316-1.5625l9.457031 2.535157 3.646484-2.105469-.003906-3.951172-3.599609-2.066406-9.5 2.546875c-.191507.05096-.384172.076172-.574219.076172-.9758308 0-1.8684527-.651616-2.1328126-1.638672-.315885-1.179573.3849922-2.391371 1.5644531-2.707031l5.2070315-1.396485-4.800782-2.755859c-1.0584496-.607747-1.4238163-1.958791-.8164058-3.017578.6068488-1.060022 1.9571068-1.425726 3.0175778-.816407l4.810547 2.761719-1.396484-5.207031c-.315997-1.179236.385105-2.393325 1.564453-2.708985 1.178339-.309373 2.38953.386004 2.705078 1.564454l2.533203 9.455078 3.626953 2.082031 3.410157-1.96875v-4.214844l-6.923829-6.923828c-.863351-.863576-.863351-2.261536 0-3.1249999.863577-.8633515 2.261649-.8633515 3.125 0l3.798829 3.7988279v-5.5273435c0-1.2205461.990615-2.2109375 2.210937-2.2109375zm.013672 22.023438-3.421875 1.974609.003906 3.953125 3.417969 1.974609 3.419922-1.974609v-3.951172z"/>
</svg>