<svg viewBox="0 0 64 64" xmlns="http://www.w3.org/2000/svg">
	<path d="m0 0v64h64v-64zm50.28125 6c2.52002 0 4.570312 2.0502928 4.570312 4.570312 0 2.52002-2.050292 4.570313-4.570312 4.570313-.935486 0-1.804077-.285126-2.529297-.769531l-5.316406 3.986328c.134888.43045.228515.879027.228515 1.353516 0 2.520019-2.050292 4.570312-4.570312 4.570312-.7034 0-1.361145-.173737-1.957031-.458984l-6.119141 6.11914c.285247.595885.458984 1.253632.458984 1.957032 0 2.520019-2.050292 4.570312-4.570312 4.570312s-4.570312-2.050294-4.570312-4.570312c0-.189638.03403-.371002.05664-.554688l-4.509766-2.253906c-.82202.79187-1.934997 1.285156-3.164062 1.285156-2.52002 0-4.5703125-2.050293-4.5703125-4.570312 0-2.52002 2.0502925-4.570313 4.5703125-4.570313s4.570312 2.050293 4.570312 4.570313c0 .189636-.03403.371002-.05664.554687l4.509766 2.253906c.822021-.79187 1.934997-1.285156 3.164062-1.285156.7034 0 1.361145.173735 1.957031.458984l6.119141-6.11914c-.285248-.595886-.458984-1.253632-.458984-1.957031 0-2.520021 2.050292-4.570313 4.570312-4.570313.935486 0 1.804077.285126 2.529297.769531l5.316406-3.986328c-.134888-.43045-.228515-.879027-.228515-1.353516 0-2.5200192 2.050292-4.570312 4.570312-4.570312zm-3.046875 15.234375h6.09375c.841858 0 1.523437.68158 1.523437 1.523437v32.195313h1.625c.841859 0 1.523438.681579 1.523438 1.523437s-.681579 1.523438-1.523438 1.523438h-48.9531245c-.8418579 0-1.5234375-.68158-1.5234375-1.523438s.6815796-1.523437 1.5234375-1.523437h1.625v-16.960937c0-.841859.6815796-1.523438 1.5234375-1.523438h6.09375c.841858 0 1.523437.681579 1.523437 1.523438v16.960937h3.046876v-10.867187c0-.841859.681579-1.523438 1.523437-1.523438h6.09375c.841858 0 1.523437.681579 1.523437 1.523438v10.867187h3.046876v-23.054687c0-.841858.681579-1.523438 1.523437-1.523438h6.09375c.841858 0 1.523437.68158 1.523437 1.523438v23.054687h3.046876v-32.195313c0-.841857.681579-1.523437 1.523437-1.523437z" fill="#c0c0c0"/>
</svg>