<svg viewBox="0 0 64 64" xmlns="http://www.w3.org/2000/svg">
	<path fill="silver" d="m0 0v64h64v-64zm29.291016 6h14.083984c.897 0 1.625.728 1.625 1.625v14.083984c0 .6565-.39724 1.248667-1.003906 1.5-.6045.251333-1.303699.116438-1.769532-.351562l-3.726562-3.72461-10.226562 10.226563c-1.757167 1.757167-1.757167 4.612187 0 6.367187.634834.634834.634834 1.663996 0 2.298829s-1.662043.632914-2.296876-.001953l-2.537109-2.53711c-4.012667-4.012667-4.012667-10.543975 0-14.55664l8.427735-8.429688-3.726563-3.7265625c-.463667-.4636667-.604849-1.1628646-.353516-1.7695313s.847407-1.0039062 1.503907-1.0039062zm7.585937 19.498047c.416 0 .831021.159145 1.148438.476562l2.537109 2.53711c4.012667 4.012667 4.012667 10.542021 0 14.554687l-8.429688 8.433594 3.726563 3.726562c.463667.463667.604849 1.162865.353516 1.769532-.251333.606666-.847407 1.003906-1.503907 1.003906h-14.083984c-.897 0-1.625-.728-1.625-1.625v-14.083984c0-.6565.39724-1.248667 1.003906-1.5.608834-.251334 1.308032-.114271 1.769532.351562l3.726562 3.72461 10.226562-10.226563c1.757166-1.757167 1.757166-4.612187 0-6.367187-.634833-.634834-.634833-1.663996 0-2.298829.317417-.317417.734391-.476562 1.150391-.476562z"/>
</svg>